<svg xmlns="http://www.w3.org/2000/svg" width="705.573" height="143.28"><g><path style="line-height:125%;-inkscape-font-specification:Dosis" d="M0 139.68v-94.464c0-.96.432-1.776 1.296-2.448.864-.672 1.968-1.008 3.312-1.008 1.248 0 2.304.336 3.168 1.008.864.672 1.296 1.488 1.296 2.448v6.624c1.728-3.072 4.272-5.664 7.632-7.776 3.36-2.112 7.248-3.168 11.664-3.168 7.104 0 13.2 2.64 18.288 7.92 5.088 5.28 7.632 11.616 7.632 19.008v15.696c0 7.2-2.592 13.584-7.776 19.152-5.088 5.472-10.992 8.208-17.712 8.208-4.224 0-8.112-1.056-11.664-3.168-3.552-2.208-6.144-4.848-7.776-7.92v39.888c0 .864-.48 1.68-1.44 2.448-.864.768-1.968 1.152-3.312 1.152-1.248 0-2.352-.384-3.312-1.152-.864-.768-1.296-1.584-1.296-2.448m9.36-51.696c0 2.592 1.776 5.616 5.328 9.072 3.648 3.456 7.776 5.184 12.384 5.184 4.704 0 8.832-1.92 12.384-5.76 3.648-3.84 5.472-8.16 5.472-12.96v-15.696c0-4.704-1.824-8.928-5.472-12.672-3.552-3.744-7.776-5.616-12.672-5.616-4.608 0-8.688 1.68-12.24 5.04-3.456 3.36-5.184 7.776-5.184 13.248v20.16" font-size="144" letter-spacing="0" word-spacing="0" fill="#4d4d4d" font-family="Dosis"/><path style="line-height:125%;-inkscape-font-specification:Dosis" d="M67.014 83.52v-15.696c0-7.296 2.688-13.584 8.064-18.864 5.376-5.376 11.76-8.064 19.152-8.064 7.392 0 13.824 2.64 19.296 7.92 5.472 5.28 8.208 11.616 8.208 19.008v15.696c0 7.2-2.784 13.584-8.352 19.152-5.472 5.472-11.856 8.208-19.152 8.208-7.2 0-13.536-2.736-19.008-8.208-5.472-5.568-8.208-11.952-8.208-19.152m9.36 0c0 4.896 1.728 9.264 5.184 13.104 3.552 3.744 7.776 5.616 12.672 5.616 4.992 0 9.264-1.872 12.816-5.616 3.552-3.84 5.328-8.208 5.328-13.104v-15.696c0-4.704-1.824-8.928-5.472-12.672-3.552-3.744-7.776-5.616-12.672-5.616-4.896 0-9.12 1.872-12.672 5.616-3.456 3.744-5.184 7.968-5.184 12.672v15.696" font-size="144" letter-spacing="0" word-spacing="0" fill="#4d4d4d" font-family="Dosis"/><path style="line-height:125%;-inkscape-font-specification:Dosis" d="M137.25 106.128v-60.912c0-.96.432-1.776 1.296-2.448.864-.672 1.968-1.008 3.312-1.008 1.248 0 2.304.336 3.168 1.008.864.672 1.296 1.488 1.296 2.448v7.056c1.728-3.168 4.272-5.856 7.632-8.064 3.36-2.208 7.248-3.312 11.664-3.312h5.04c.96 0 1.824.432 2.592 1.296.768.864 1.152 1.872 1.152 3.024s-.384 2.16-1.152 3.024c-.768.864-1.632 1.296-2.592 1.296h-5.04c-4.992 0-9.408 1.968-13.248 5.904-3.84 3.84-5.76 8.88-5.76 15.12v35.568c0 .96-.48 1.824-1.44 2.592-.864.768-1.968 1.152-3.312 1.152-1.248 0-2.352-.384-3.312-1.152-.864-.768-1.296-1.632-1.296-2.592" font-size="144" letter-spacing="0" word-spacing="0" fill="#4d4d4d" font-family="Dosis"/><path style="line-height:125%;-inkscape-font-specification:Dosis" d="M184.493 88.704v-75.888c0-.96.48-1.776 1.44-2.448.96-.672 2.016-1.008 3.168-1.008 1.248 0 2.352.336 3.312 1.008.96.672 1.44 1.488 1.44 2.448v28.944h18.576c.96 0 1.728.384 2.304 1.152.672.768 1.008 1.68 1.008 2.736 0 1.056-.336 1.968-1.008 2.736-.576.768-1.344 1.152-2.304 1.152h-18.576v39.168c0 4.704.96 8.016 2.88 9.936 2.016 1.824 5.52 2.736 10.512 2.736h4.032c1.248 0 2.256.432 3.024 1.296.864.768 1.296 1.728 1.296 2.88s-.432 2.16-1.296 3.024c-.768.864-1.776 1.296-3.024 1.296h-4.032c-15.168 0-22.752-7.056-22.752-21.168" font-size="144" letter-spacing="0" word-spacing="0" fill="#4d4d4d" font-family="Dosis"/><path style="line-height:125%;-inkscape-font-specification:Dosis" d="M222.779 91.872c0-7.392 2.832-12.528 8.496-15.408 5.76-2.88 14.112-4.32 25.056-4.32h7.344v-3.456c0-5.28-1.392-9.84-4.176-13.68-2.784-3.936-7.056-5.904-12.816-5.904-3.84 0-7.344.72-10.512 2.16-3.072 1.344-4.704 2.016-4.896 2.016-1.152 0-2.064-.528-2.736-1.584-.672-1.056-1.008-2.208-1.008-3.456 0-1.824 2.064-3.504 6.192-5.04s8.544-2.304 13.248-2.304c9.024 0 15.6 2.64 19.728 7.92 4.224 5.184 6.336 11.808 6.336 19.872v37.44c0 1.056-.432 1.968-1.296 2.736-.864.672-1.968 1.008-3.312 1.008-1.248 0-2.304-.336-3.168-1.008-.768-.768-1.152-1.68-1.152-2.736v-6.336c-6.432 7.392-13.68 11.088-21.744 11.088-5.76 0-10.464-1.584-14.112-4.752-3.648-3.264-5.472-8.016-5.472-14.256m9.36-.864c0 4.032 1.152 7.056 3.456 9.072 2.304 1.92 5.328 2.88 9.072 2.88 4.512 0 8.784-1.68 12.816-5.04 4.128-3.36 6.192-6.72 6.192-10.08v-9.216h-6.048c-3.84 0-7.104.144-9.792.432-2.592.288-5.184.816-7.776 1.584-2.592.768-4.56 2.016-5.904 3.744-1.344 1.728-2.016 3.936-2.016 6.624" font-size="144" letter-spacing="0" word-spacing="0" fill="#4d4d4d" font-family="Dosis"/><path style="line-height:125%;-inkscape-font-specification:Dosis" d="M291.683 106.128v-102.672c0-.96.432-1.776 1.296-2.448.864-.672 1.968-1.008 3.312-1.008 1.344 0 2.448.336 3.312 1.008.96.672 1.44 1.488 1.44 2.448v102.672c0 .96-.48 1.824-1.44 2.592-.864.768-1.968 1.152-3.312 1.152-1.248 0-2.352-.384-3.312-1.152-.864-.768-1.296-1.632-1.296-2.592" font-size="144" letter-spacing="0" word-spacing="0" fill="#4d4d4d" font-family="Dosis"/><path style="line-height:125%" d="M320.344 106.128v-60.912c0-1.056.432-1.872 1.296-2.448.864-.672 1.968-1.008 3.312-1.008 1.152 0 2.16.336 3.024 1.008.864.672 1.296 1.488 1.296 2.448v6.624c1.632-3.072 4.128-5.664 7.488-7.776 3.36-2.112 7.296-3.168 11.808-3.168 6.912 0 12.912 2.64 18 7.92 5.088 5.28 7.632 11.616 7.632 19.008v38.304c0 1.152-.48 2.064-1.44 2.736-.96.672-2.064 1.008-3.312 1.008-1.152 0-2.208-.336-3.168-1.008-.96-.672-1.44-1.584-1.44-2.736v-38.304c0-4.704-1.776-8.928-5.328-12.672-3.552-3.744-7.776-5.616-12.672-5.616-4.512 0-8.496 1.68-11.952 5.04-3.456 3.36-5.184 7.776-5.184 13.248v38.304c0 .96-.48 1.824-1.44 2.592s-2.064 1.152-3.312 1.152c-1.344 0-2.448-.384-3.312-1.152-.864-.768-1.296-1.632-1.296-2.592" font-size="144" letter-spacing="0" word-spacing="0" fill="#ff2a2a" font-family="Sans"/><path style="line-height:125%" d="M389.189 83.52v-16.128c0-7.2 2.688-13.392 8.064-18.576 5.376-5.28 11.856-7.92 19.44-7.92 7.296 0 13.584 2.496 18.864 7.488 5.376 4.992 8.064 11.232 8.064 18.72 0 2.688-.336 4.848-1.008 6.48-.576 1.632-1.584 2.784-3.024 3.456-1.344.672-2.592 1.104-3.744 1.296-1.152.192-2.736.288-4.752.288h-32.544v5.328c0 5.664 2.016 10.224 6.048 13.68 4.128 3.36 9.408 5.04 15.84 5.04 3.264 0 6.096-.48 8.496-1.44 2.496-.96 4.368-1.92 5.616-2.88 1.344-.96 2.4-1.44 3.168-1.44 1.056 0 1.968.528 2.736 1.584.864.96 1.296 1.92 1.296 2.88 0 2.016-2.064 4.128-6.192 6.336-4.128 2.112-9.264 3.168-15.408 3.168-9.12 0-16.56-2.496-22.32-7.488-5.76-5.088-8.64-11.712-8.64-19.872m9.36-11.808h28.8c2.88 0 4.8-.288 5.76-.864.96-.672 1.44-2.016 1.44-4.032 0-4.8-1.728-9.024-5.184-12.672-3.36-3.648-7.632-5.472-12.816-5.472-4.992 0-9.264 1.728-12.816 5.184-3.456 3.456-5.184 7.584-5.184 12.384v5.472" font-size="144" letter-spacing="0" word-spacing="0" fill="#ff2a2a" font-family="Sans"/><path style="line-height:125%" d="M450.963 45.648c0-1.152.576-2.112 1.728-2.88 1.248-.864 2.544-1.296 3.888-1.296 1.728 0 2.832.72 3.312 2.16l18.432 51.264 14.832-46.8c.48-1.632 1.728-2.448 3.744-2.448s3.264.816 3.744 2.448l14.256 47.376 18.864-51.84c.288-1.44 1.344-2.16 3.168-2.16 1.344 0 2.592.384 3.744 1.152 1.248.768 1.872 1.776 1.872 3.024 0 .864-.192 1.584-.576 2.16l-22.464 60.912c-.48 1.536-1.728 2.304-3.744 2.304-1.824 0-3.12-.72-3.888-2.16l-14.976-46.8-14.832 46.08c-.576 1.92-1.968 2.88-4.176 2.88-2.016 0-3.312-.96-3.888-2.88l-22.464-60.336c-.384-.768-.576-1.488-.576-2.16" font-size="144" letter-spacing="0" word-spacing="0" fill="#ff2a2a" font-family="Sans"/><path style="line-height:125%" d="M549.461 100.512c0-.96.336-1.92 1.008-2.88.672-.96 1.44-1.44 2.304-1.44.672 0 1.728.576 3.168 1.728 1.44 1.056 3.504 2.16 6.192 3.312 2.688 1.152 5.904 1.728 9.648 1.728 5.088 0 8.832-.96 11.232-2.88 2.4-1.92 3.6-4.368 3.6-7.344 0-3.456-1.248-6.192-3.744-8.208-2.4-2.112-5.328-3.648-8.784-4.608-3.456-.96-6.96-2.016-10.512-3.168-3.456-1.152-6.432-3.024-8.928-5.616-2.4-2.688-3.6-6.24-3.6-10.656 0-5.28 1.872-9.84 5.616-13.68 3.84-3.936 9.552-5.904 17.136-5.904 4.704 0 9.072.768 13.104 2.304 4.128 1.44 6.192 3.024 6.192 4.752 0 .96-.384 2.016-1.152 3.168-.768 1.152-1.68 1.728-2.736 1.728-.288 0-2.064-.672-5.328-2.016-3.264-1.344-6.576-2.016-9.936-2.016-4.8 0-8.4 1.152-10.8 3.456-2.4 2.304-3.6 4.896-3.6 7.776 0 2.976 1.2 5.328 3.6 7.056 2.496 1.728 5.472 3.072 8.928 4.032 3.552.864 7.056 1.92 10.512 3.168 3.552 1.152 6.528 3.264 8.928 6.336 2.496 2.976 3.744 6.864 3.744 11.664 0 5.76-2.064 10.32-6.192 13.68-4.032 3.264-9.696 4.896-16.992 4.896-6.336 0-11.712-1.104-16.128-3.312-4.32-2.304-6.48-4.656-6.48-7.056" font-size="144" letter-spacing="0" word-spacing="0" fill="#ff2a2a" font-family="Sans"/><path style="text-indent:0;text-align:start;line-height:normal;text-transform:none;block-progression:tb;-inkscape-font-specification:Sans" d="M662.646 32.15c-17.616-.228-34.62 11.554-40.458 28.198-5.494 14.656-1.555 32.138 9.496 43.177 11.429 12.023 30.061 16.357 45.605 10.532 15.871-5.542 27.776-21.133 28.233-38.039.861-16.411-9.175-32.462-23.927-39.478-5.872-2.884-12.406-4.397-18.948-4.389zm0 23.652c9.715-.306 18.993 7.735 19.23 17.626.809 9.993-7.833 19.101-17.713 19.484-9.522.96-19.309-6.01-20.564-15.698-1.804-9.807 5.77-19.793 15.565-21.121 1.15-.195 2.316-.29 3.482-.29z" color="#000" fill="#ff2a2a" overflow="visible" enable-background="accumulate" font-family="Sans"/></g></svg>